<svg width="24" height="24" viewBox="0 0 24 24" fill="none" xmlns="http://www.w3.org/2000/svg">
<path fill-rule="evenodd" clip-rule="evenodd" d="M14.0356 14.2906C14.8212 13.6816 15.733 13.5928 16.6746 14.0315C18.8897 14.8567 20 15.5969 20 16.5C20 17.2281 19.4672 18.2936 18.408 19.789C18.3021 19.9385 18.1229 20.0182 17.9409 19.9965C14.2458 19.5566 11.2868 18.1472 9.13447 15.8412C6.8292 13.3712 5.3905 10.2914 5.00267 6.55158C4.98826 6.41261 5.03265 6.27395 5.12508 6.16919C6.38802 4.73786 7.49481 4 8.5 4C9.66646 4 10.4297 5.33561 10.9977 7.95181C11.0627 8.6239 10.7381 9.34105 10.0622 10.1226C10.5617 11.4715 12.4566 13.6379 13.7192 14.3367L13.8802 14.4193L14.0356 14.2906ZM17.9134 18.7453C18.6392 17.6633 19 16.894 19 16.5C19 16.2266 18.1103 15.6335 16.2894 14.9535C15.5407 14.6058 14.9396 14.7261 14.3655 15.3412C14.2367 15.4792 14.041 15.5329 13.8598 15.4799C12.2239 15.0019 9.47137 11.9145 9.01545 10.1233C8.97345 9.95834 9.0183 9.78331 9.13447 9.65884C9.76721 8.98091 10.0398 8.43564 10.0115 8.10673C9.55073 5.99772 8.98061 5 8.5 5C7.88712 5 7.04509 5.5429 6.0214 6.66735C6.41864 10.0876 7.75149 12.8938 9.86553 15.1588C11.7132 17.1385 14.2156 18.4064 17.3508 18.9052L17.7633 18.9659L17.9134 18.7453Z" fill="white"/>
</svg>
