<svg width="24" height="24" viewBox="0 0 24 24" fill="none" xmlns="http://www.w3.org/2000/svg">
<path fill-rule="evenodd" clip-rule="evenodd" d="M4.00806 12.4101L4 12.5C4 12.7455 4.17688 12.9496 4.41012 12.9919L4.5 13H18.292L15.1464 16.1464C14.9729 16.32 14.9536 16.5894 15.0886 16.7843L15.1464 16.8536C15.32 17.0271 15.5894 17.0464 15.7843 16.9114L15.8536 16.8536L19.8536 12.8536C20.0271 12.68 20.0464 12.4106 19.9114 12.2157L19.8536 12.1464L15.8536 8.14645C15.6583 7.95118 15.3417 7.95118 15.1464 8.14645C14.9729 8.32001 14.9536 8.58944 15.0886 8.78431L15.1464 8.85355L18.292 12H4.5C4.25454 12 4.05039 12.1769 4.00806 12.4101Z" fill="white"/>
</svg>
