<svg width="14" height="9" viewBox="0 0 14 9" fill="none" xmlns="http://www.w3.org/2000/svg">
<path fill-rule="evenodd" clip-rule="evenodd" d="M0.5 8H13.5C13.7761 8 14 8.22386 14 8.5C14 8.74546 13.8231 8.94961 13.5899 8.99194L13.5 9H0.5C0.223858 9 0 8.77614 0 8.5C0 8.25454 0.176875 8.05039 0.410124 8.00806L0.5 8ZM0.5 4H13.5C13.7761 4 14 4.22386 14 4.5C14 4.74546 13.8231 4.94961 13.5899 4.99194L13.5 5H0.5C0.223858 5 0 4.77614 0 4.5C0 4.25454 0.176875 4.05039 0.410124 4.00806L0.5 4ZM0.5 0H13.5C13.7761 0 14 0.223858 14 0.5C14 0.74546 13.8231 0.949608 13.5899 0.991944L13.5 1H0.5C0.223858 1 0 0.776142 0 0.5C0 0.25454 0.176875 0.0503916 0.410124 0.00805567L0.5 0Z" fill="white"/>
</svg>
