<svg width="24" height="24" viewBox="0 0 24 24" fill="none" xmlns="http://www.w3.org/2000/svg">
<path fill-rule="evenodd" clip-rule="evenodd" d="M11.8237 2.00509L12 2C13.5977 2 14.9037 3.24892 14.9949 4.82373L15 5V6H18.5C18.7761 6 19 6.22386 19 6.5V18.5C19 18.7761 18.7761 19 18.5 19H5.5C5.22386 19 5 18.7761 5 18.5V6.5C5 6.22386 5.22386 6 5.5 6H9V5C9 3.40232 10.2489 2.09634 11.8237 2.00509ZM18 7H15V8.5C15 8.74546 14.8231 8.94961 14.5899 8.99194L14.5 9C14.2545 9 14.0504 8.82312 14.0081 8.58988L14 8.5V7H10V8.5C10 8.74546 9.82312 8.94961 9.58988 8.99194L9.5 9C9.25454 9 9.05039 8.82312 9.00806 8.58988L9 8.5V7H6V18H18V7ZM12.1493 3.00549L12 3C10.9456 3 10.0818 3.81588 10.0055 4.85074L10 5V6H14V5C14 3.94564 13.1841 3.08183 12.1493 3.00549Z" fill="#E7F1F3"/>
<circle cx="18" cy="18" r="4" fill="#52AE51"/>
</svg>
