<svg width="24" height="24" viewBox="0 0 24 24" fill="none" xmlns="http://www.w3.org/2000/svg">
<path fill-rule="evenodd" clip-rule="evenodd" d="M18.5 7C18.7761 7 19 7.22386 19 7.5V16.5C19 16.7761 18.7761 17 18.5 17H11.2269L7.87629 20.8293C7.57227 21.1767 7 20.9617 7 20.5V17H4.5C4.22386 17 4 16.7761 4 16.5V7.5C4 7.22386 4.22386 7 4.5 7H18.5ZM18 8H5V16H7.5C7.77614 16 8 16.2239 8 16.5V19.1693L10.6237 16.1707C10.7187 16.0622 10.8558 16 11 16H18V8ZM6.5 5H20.5C20.7455 5 20.9496 5.17688 20.9919 5.41012L21 5.5V14.5C21 14.7761 20.7761 15 20.5 15C20.2545 15 20.0504 14.8231 20.0081 14.5899L20 14.5V6H6.5C6.22386 6 6 5.77614 6 5.5C6 5.25454 6.17688 5.05039 6.41012 5.00806L6.5 5Z" fill="#BEC7D7"/>
</svg>
