<svg width="32" height="32" viewBox="0 0 32 32" fill="none" xmlns="http://www.w3.org/2000/svg">
<rect width="32" height="32" fill="white"/>
<path d="M15.9996 12.8181C14.2456 12.8181 12.8174 14.2456 12.8174 15.9996C12.8174 17.7544 14.2456 19.1826 15.9996 19.1826C17.7544 19.1826 19.1819 17.7544 19.1819 15.9996C19.1819 14.2456 17.7544 12.8181 15.9996 12.8181ZM15.9996 12.8181C14.2456 12.8181 12.8174 14.2456 12.8174 15.9996C12.8174 17.7544 14.2456 19.1826 15.9996 19.1826C17.7544 19.1826 19.1819 17.7544 19.1819 15.9996C19.1819 14.2456 17.7544 12.8181 15.9996 12.8181ZM21.301 7.62978H10.699C9.00674 7.62978 7.62978 9.00674 7.62978 10.699V21.301C7.62978 22.9933 9.00674 24.3702 10.699 24.3702H21.301C22.9933 24.3702 24.3702 22.9933 24.3702 21.301V10.699C24.3702 9.00674 22.9933 7.62978 21.301 7.62978ZM15.9996 21.511C12.9614 21.511 10.489 19.0386 10.489 15.9996C10.489 12.9614 12.9614 10.489 15.9996 10.489C19.0386 10.489 21.511 12.9614 21.511 15.9996C21.511 19.0386 19.0386 21.511 15.9996 21.511ZM21.6879 11.6286C20.9689 11.6286 20.384 11.0437 20.384 10.3247C20.384 9.60569 20.9689 9.02078 21.6879 9.02078C22.4069 9.02078 22.9919 9.60569 22.9919 10.3247C22.9919 11.0437 22.4069 11.6286 21.6879 11.6286ZM15.9996 12.8181C14.2456 12.8181 12.8174 14.2456 12.8174 15.9996C12.8174 17.7544 14.2456 19.1826 15.9996 19.1826C17.7544 19.1826 19.1819 17.7544 19.1819 15.9996C19.1819 14.2456 17.7544 12.8181 15.9996 12.8181ZM21.301 7.62978H10.699C9.00674 7.62978 7.62978 9.00674 7.62978 10.699V21.301C7.62978 22.9933 9.00674 24.3702 10.699 24.3702H21.301C22.9933 24.3702 24.3702 22.9933 24.3702 21.301V10.699C24.3702 9.00674 22.9933 7.62978 21.301 7.62978ZM15.9996 21.511C12.9614 21.511 10.489 19.0386 10.489 15.9996C10.489 12.9614 12.9614 10.489 15.9996 10.489C19.0386 10.489 21.511 12.9614 21.511 15.9996C21.511 19.0386 19.0386 21.511 15.9996 21.511ZM21.6879 11.6286C20.9689 11.6286 20.384 11.0437 20.384 10.3247C20.384 9.60569 20.9689 9.02078 21.6879 9.02078C22.4069 9.02078 22.9919 9.60569 22.9919 10.3247C22.9919 11.0437 22.4069 11.6286 21.6879 11.6286ZM15.9996 12.8181C14.2456 12.8181 12.8174 14.2456 12.8174 15.9996C12.8174 17.7544 14.2456 19.1826 15.9996 19.1826C17.7544 19.1826 19.1819 17.7544 19.1819 15.9996C19.1819 14.2456 17.7544 12.8181 15.9996 12.8181ZM0 0V32H32V0H0ZM26.6986 21.301C26.6986 24.2775 24.2775 26.6986 21.301 26.6986H10.699C7.72247 26.6986 5.30138 24.2775 5.30138 21.301V10.699C5.30138 7.72247 7.72247 5.30138 10.699 5.30138H21.301C24.2775 5.30138 26.6986 7.72247 26.6986 10.699V21.301ZM21.301 7.62978H10.699C9.00674 7.62978 7.62978 9.00674 7.62978 10.699V21.301C7.62978 22.9933 9.00674 24.3702 10.699 24.3702H21.301C22.9933 24.3702 24.3702 22.9933 24.3702 21.301V10.699C24.3702 9.00674 22.9933 7.62978 21.301 7.62978ZM15.9996 21.511C12.9614 21.511 10.489 19.0386 10.489 15.9996C10.489 12.9614 12.9614 10.489 15.9996 10.489C19.0386 10.489 21.511 12.9614 21.511 15.9996C21.511 19.0386 19.0386 21.511 15.9996 21.511ZM21.6879 11.6286C20.9689 11.6286 20.384 11.0437 20.384 10.3247C20.384 9.60569 20.9689 9.02078 21.6879 9.02078C22.4069 9.02078 22.9919 9.60569 22.9919 10.3247C22.9919 11.0437 22.4069 11.6286 21.6879 11.6286ZM15.9996 12.8181C14.2456 12.8181 12.8174 14.2456 12.8174 15.9996C12.8174 17.7544 14.2456 19.1826 15.9996 19.1826C17.7544 19.1826 19.1819 17.7544 19.1819 15.9996C19.1819 14.2456 17.7544 12.8181 15.9996 12.8181ZM15.9996 12.8181C14.2456 12.8181 12.8174 14.2456 12.8174 15.9996C12.8174 17.7544 14.2456 19.1826 15.9996 19.1826C17.7544 19.1826 19.1819 17.7544 19.1819 15.9996C19.1819 14.2456 17.7544 12.8181 15.9996 12.8181ZM15.9996 12.8181C14.2456 12.8181 12.8174 14.2456 12.8174 15.9996C12.8174 17.7544 14.2456 19.1826 15.9996 19.1826C17.7544 19.1826 19.1819 17.7544 19.1819 15.9996C19.1819 14.2456 17.7544 12.8181 15.9996 12.8181ZM21.301 7.62978H10.699C9.00674 7.62978 7.62978 9.00674 7.62978 10.699V21.301C7.62978 22.9933 9.00674 24.3702 10.699 24.3702H21.301C22.9933 24.3702 24.3702 22.9933 24.3702 21.301V10.699C24.3702 9.00674 22.9933 7.62978 21.301 7.62978ZM15.9996 21.511C12.9614 21.511 10.489 19.0386 10.489 15.9996C10.489 12.9614 12.9614 10.489 15.9996 10.489C19.0386 10.489 21.511 12.9614 21.511 15.9996C21.511 19.0386 19.0386 21.511 15.9996 21.511ZM21.6879 11.6286C20.9689 11.6286 20.384 11.0437 20.384 10.3247C20.384 9.60569 20.9689 9.02078 21.6879 9.02078C22.4069 9.02078 22.9919 9.60569 22.9919 10.3247C22.9919 11.0437 22.4069 11.6286 21.6879 11.6286ZM15.9996 12.8181C14.2456 12.8181 12.8174 14.2456 12.8174 15.9996C12.8174 17.7544 14.2456 19.1826 15.9996 19.1826C17.7544 19.1826 19.1819 17.7544 19.1819 15.9996C19.1819 14.2456 17.7544 12.8181 15.9996 12.8181ZM15.9996 12.8181C14.2456 12.8181 12.8174 14.2456 12.8174 15.9996C12.8174 17.7544 14.2456 19.1826 15.9996 19.1826C17.7544 19.1826 19.1819 17.7544 19.1819 15.9996C19.1819 14.2456 17.7544 12.8181 15.9996 12.8181ZM15.9996 12.8181C14.2456 12.8181 12.8174 14.2456 12.8174 15.9996C12.8174 17.7544 14.2456 19.1826 15.9996 19.1826C17.7544 19.1826 19.1819 17.7544 19.1819 15.9996C19.1819 14.2456 17.7544 12.8181 15.9996 12.8181ZM21.301 7.62978H10.699C9.00674 7.62978 7.62978 9.00674 7.62978 10.699V21.301C7.62978 22.9933 9.00674 24.3702 10.699 24.3702H21.301C22.9933 24.3702 24.3702 22.9933 24.3702 21.301V10.699C24.3702 9.00674 22.9933 7.62978 21.301 7.62978ZM15.9996 21.511C12.9614 21.511 10.489 19.0386 10.489 15.9996C10.489 12.9614 12.9614 10.489 15.9996 10.489C19.0386 10.489 21.511 12.9614 21.511 15.9996C21.511 19.0386 19.0386 21.511 15.9996 21.511ZM21.6879 11.6286C20.9689 11.6286 20.384 11.0437 20.384 10.3247C20.384 9.60569 20.9689 9.02078 21.6879 9.02078C22.4069 9.02078 22.9919 9.60569 22.9919 10.3247C22.9919 11.0437 22.4069 11.6286 21.6879 11.6286ZM15.9996 12.8181C14.2456 12.8181 12.8174 14.2456 12.8174 15.9996C12.8174 17.7544 14.2456 19.1826 15.9996 19.1826C17.7544 19.1826 19.1819 17.7544 19.1819 15.9996C19.1819 14.2456 17.7544 12.8181 15.9996 12.8181Z" fill="url(#paint0_linear)"/>
<defs>
<linearGradient id="paint0_linear" x1="2.14853" y1="29.9152" x2="31.7987" y2="4.24828" gradientUnits="userSpaceOnUse">
<stop stop-color="#FFDD55"/>
<stop offset="0.5" stop-color="#FF543E"/>
<stop offset="1" stop-color="#C837AB"/>
</linearGradient>
</defs>
</svg>
