<svg width="32" height="32" viewBox="0 0 32 32" fill="none" xmlns="http://www.w3.org/2000/svg">
<path fill-rule="evenodd" clip-rule="evenodd" d="M16 0C24.8366 0 32 7.16344 32 16C32 24.8366 24.8366 32 16 32C7.16344 32 0 24.8366 0 16C0 7.16344 7.16344 0 16 0ZM16 1C7.71573 1 1 7.71573 1 16C1 24.2843 7.71573 31 16 31C24.2843 31 31 24.2843 31 16C31 7.71573 24.2843 1 16 1ZM12.8536 12.1464C13.0271 12.32 13.0464 12.5894 12.9114 12.7843L12.8536 12.8536L9.708 16H23.5C23.7148 16 23.8979 16.1354 23.9687 16.3255L23.9919 16.4101L24 16.5C24 16.7455 23.8231 16.9496 23.5899 16.9919L23.5 17H9.708L12.8536 20.1464C13.0271 20.32 13.0464 20.5894 12.9114 20.7843L12.8536 20.8536C12.68 21.0271 12.4106 21.0464 12.2157 20.9114L12.1464 20.8536L8.14645 16.8536C7.97288 16.68 7.9536 16.4106 8.08859 16.2157L8.14645 16.1464L12.1464 12.1464C12.3417 11.9512 12.6583 11.9512 12.8536 12.1464Z" fill="#E7F1F3"/>
</svg>
