<svg width="32" height="32" viewBox="0 0 32 32" fill="none" xmlns="http://www.w3.org/2000/svg">
<g clip-path="url(#clip0)">
<path d="M23.8671 13.9518C24.121 14.0036 24.3685 13.8398 24.4204 13.5854C24.5363 13.0175 24.595 12.4332 24.595 11.8485C24.595 7.09497 20.7394 3.22766 16.0001 3.22766C11.2609 3.22766 7.40527 7.09497 7.40527 11.8485C7.40527 16.6019 11.2609 20.4693 16.0001 20.4693C19.2304 20.4693 22.1585 18.6795 23.6416 15.7985C23.7604 15.5678 23.6702 15.2841 23.4402 15.1649C23.2101 15.0457 22.9273 15.1363 22.8085 15.367C21.487 17.9341 18.8782 19.5288 16.0002 19.5288C11.778 19.5288 8.34296 16.0834 8.34296 11.8484C8.34296 7.61341 11.778 4.16803 16.0002 4.16803C20.2224 4.16803 23.6574 7.61341 23.6574 11.8484C23.6574 12.3699 23.6051 12.8908 23.5018 13.3968C23.4499 13.6513 23.6135 13.8997 23.8671 13.9518Z" fill="#C86B46"/>
<path d="M21.2161 10.0995C21.1608 9.92892 21.0137 9.80478 20.8367 9.77934L17.7813 9.34035L16.4209 6.5613C16.2655 6.21594 15.7346 6.21601 15.5792 6.5613L14.2188 9.34028L11.1634 9.77928C10.7875 9.82085 10.6241 10.3276 10.9033 10.5821L13.1179 12.7386L12.59 15.7889C12.5132 16.1592 12.9421 16.4731 13.2709 16.2851L16 14.8389L18.7292 16.2851C19.0574 16.4731 19.487 16.1592 19.4101 15.7889L18.8822 12.7386L21.0967 10.5821C21.2251 10.4572 21.2713 10.27 21.2161 10.0995ZM18.0514 12.237C17.9402 12.3452 17.8895 12.5016 17.916 12.6548L18.323 15.0063L16.219 13.8913C16.082 13.8187 15.918 13.8187 15.781 13.8913L13.677 15.0063L14.084 12.6548C14.1105 12.5016 14.0598 12.3452 13.9486 12.237L12.2414 10.5744L14.5968 10.236C14.7502 10.2139 14.8829 10.1173 14.9512 9.97774L16 7.8354L17.0487 9.97774C17.117 10.1173 17.2497 10.2139 17.4031 10.236L19.7586 10.5744L18.0514 12.237Z" fill="#C86B46"/>
<path d="M29.1561 27.9507L24.574 19.9901C26.5804 17.8656 27.8128 14.9987 27.8128 11.8483C27.8128 5.31512 22.5137 0 16.0001 0C13.996 0 12.0161 0.512628 10.2743 1.4825C10.0479 1.60858 9.9663 1.89481 10.092 2.1219C10.2176 2.34887 10.5031 2.43075 10.7294 2.3048C12.3323 1.41224 14.1548 0.940496 16.0001 0.940496C21.9967 0.940496 26.8752 5.83381 26.8752 11.8484C26.8752 17.8631 21.9967 22.7564 16.0001 22.7564C10.0035 22.7564 5.12499 17.8631 5.12499 11.8483C5.12499 8.62167 6.53811 5.57822 9.00211 3.49845C9.2002 3.33124 9.22564 3.03458 9.05893 2.83593C8.89222 2.63721 8.5965 2.61159 8.39841 2.77892C5.72225 5.03777 4.18737 8.34345 4.18737 11.8483C4.18737 15.0041 5.42397 17.8755 7.43641 20.0011L6.13868 22.2556C5.8277 22.7776 6.65056 23.2601 6.95066 22.7259L8.13038 20.6764C9.54175 21.9435 11.2575 22.8758 13.1526 23.348L9.10713 30.376L8.07231 27.1093C7.99898 26.8777 7.7617 26.7404 7.52505 26.7924L4.18706 27.5269L5.85665 24.6263C5.9861 24.4014 5.90928 24.1138 5.68506 23.984C5.46078 23.8541 5.17412 23.9311 5.04467 24.156L2.84388 27.9794C2.63511 28.3153 2.96665 28.7716 3.35032 28.6739L7.30815 27.803L8.53512 31.6763C8.64238 32.0574 9.20058 32.1195 9.38791 31.769L14.121 23.5463C14.733 23.6449 15.3605 23.6968 15.9999 23.6968C16.6445 23.6968 17.277 23.6439 17.8939 23.5438L20.7366 28.4824C20.8234 28.6333 20.981 28.7175 21.143 28.7175C21.2225 28.7175 21.3031 28.6972 21.377 28.6544C21.6012 28.5245 21.678 28.237 21.5485 28.0121L18.8618 23.3444C20.7561 22.8698 22.4707 21.9355 23.8805 20.6667L27.8128 27.4982L24.4748 26.7637C24.2381 26.7116 24.0009 26.849 23.9275 27.0806L22.8927 30.3473L22.6424 29.9125C22.513 29.6876 22.2263 29.6106 22.002 29.7405C21.7778 29.8703 21.701 30.1579 21.8305 30.3828L22.6119 31.7404C22.7993 32.0909 23.3574 32.0287 23.4647 31.6477L24.6916 27.7743L28.6495 28.6453C29.0335 28.7426 29.3648 28.2866 29.1561 27.9507Z" fill="#C86B46"/>
</g>
<defs>
<clipPath id="clip0">
<rect width="32" height="32" fill="white"/>
</clipPath>
</defs>
</svg>
