<svg width="32" height="32" viewBox="0 0 32 32" fill="none" xmlns="http://www.w3.org/2000/svg">
<path fill-rule="evenodd" clip-rule="evenodd" d="M16 0C24.8366 0 32 7.16344 32 16C32 24.8366 24.8366 32 16 32C7.16344 32 0 24.8366 0 16C0 7.16344 7.16344 0 16 0ZM16 1C7.71573 1 1 7.71573 1 16C1 24.2843 7.71573 31 16 31C24.2843 31 31 24.2843 31 16C31 7.71573 24.2843 1 16 1ZM11 8.5C11 8.14477 11.3549 7.91246 11.6717 8.03008L11.7499 8.06691L24.7499 15.5669C25.0556 15.7433 25.0811 16.1625 24.8263 16.3793L24.7499 16.4331L11.7499 23.9331C11.4422 24.1106 11.0636 23.9193 11.0072 23.5861L11 23.5V8.5ZM12 9.366V22.633L23.499 16L12 9.366Z" fill="#E7F1F3"/>
</svg>
