<svg width="24" height="24" viewBox="0 0 24 24" fill="none" xmlns="http://www.w3.org/2000/svg">
<path fill-rule="evenodd" clip-rule="evenodd" d="M12.4101 5.00806L12.5 5C12.7455 5 12.9496 5.17688 12.9919 5.41012L13 5.5V12H19.5C19.7455 12 19.9496 12.1769 19.9919 12.4101L20 12.5C20 12.7455 19.8231 12.9496 19.5899 12.9919L19.5 13H13V19.5C13 19.7455 12.8231 19.9496 12.5899 19.9919L12.5 20C12.2545 20 12.0504 19.8231 12.0081 19.5899L12 19.5V13H5.5C5.25454 13 5.05039 12.8231 5.00806 12.5899L5 12.5C5 12.2545 5.17688 12.0504 5.41012 12.0081L5.5 12H12V5.5C12 5.25454 12.1769 5.05039 12.4101 5.00806L12.5 5L12.4101 5.00806Z" fill="white"/>
</svg>
