<svg width="32" height="32" viewBox="0 0 32 32" fill="none" xmlns="http://www.w3.org/2000/svg">
<g clip-path="url(#clip0)">
<path d="M29.2558 8.1147H27.974C27.715 8.1147 27.5051 8.32461 27.5051 8.58366C27.5051 8.84271 27.715 9.05261 27.974 9.05261H29.2558C29.6868 9.05261 30.0374 9.4032 30.0374 9.8342V12.7104C30.0374 13.1414 29.6868 13.492 29.2558 13.492H19.6579V9.04911C19.6787 9.04911 25.7856 9.05261 25.7856 9.05261C26.0446 9.05261 26.2545 8.84271 26.2545 8.58366C26.2545 8.32461 26.0446 8.1147 25.7856 8.1147H22.9052C23.8779 7.17055 24.1469 5.64501 23.5012 4.45087C22.7508 2.8932 20.6928 2.25786 19.1841 3.09397C19.1574 1.48753 17.7882 0.0344045 16.1644 0.00770546C14.4453 -0.119099 12.8701 1.33703 12.8342 3.05696C11.2411 2.16739 9.04899 2.92003 8.39421 4.63808C7.88599 5.80615 8.18093 7.22557 9.09939 8.11477H2.74439C1.79624 8.11477 1.0249 8.88616 1.0249 9.83426V12.7105C1.0249 13.6586 1.79624 14.43 2.74439 14.43H3.40093V30.2806C3.40093 31.2287 4.17226 32.0001 5.12042 32.0001H26.8798C27.828 32.0001 28.5993 31.2287 28.5993 30.2806V14.43H29.2558C30.204 14.43 30.9753 13.6586 30.9753 12.7105V9.83426C30.9753 8.8861 30.2039 8.1147 29.2558 8.1147ZM13.2802 14.4299H18.72V31.0621H13.2802V14.4299ZM13.2802 13.492V9.04029L15.987 9.04629C15.9873 9.04629 15.9876 9.04636 15.9879 9.04636C15.9882 9.04636 15.9885 9.04629 15.9889 9.04629H18.72V13.492H13.2802ZM20.5435 3.66522C22.2659 3.49221 23.5613 5.57405 22.5835 7.02392C22.1459 7.72747 21.3891 8.13596 20.5571 8.11483C20.554 8.11477 16.802 8.10839 16.802 8.10839C17.3574 7.10589 18.3411 5.52159 18.8906 4.5331C19.2887 4.02556 19.8857 3.70693 20.5435 3.66522ZM9.25764 5.0043C9.82689 3.43468 12.1126 3.15037 13.0949 4.46963C13.2113 4.84054 13.5454 5.21195 13.9575 4.99698C14.3822 4.76395 14.1538 4.28149 13.916 3.99805C13.3168 2.5503 14.5454 0.799047 16.1265 0.944797C17.6342 0.955552 18.6859 2.709 18.074 4.05933C17.4893 5.02912 16.5437 6.66495 15.9884 7.59279L15.1825 6.22864C15.0508 6.00567 14.7631 5.93164 14.5402 6.06338C14.5326 6.06788 14.5255 6.07301 14.5182 6.07789C14.3109 6.21282 14.2427 6.48756 14.3677 6.70447L15.1758 8.10651L11.3657 8.10633C9.82132 8.15891 8.60005 6.42316 9.25764 5.0043ZM1.96281 12.7104V9.8342C1.96281 9.4032 2.3134 9.05261 2.74439 9.05261H12.3423V13.492H2.74439C2.3134 13.492 1.96281 13.1414 1.96281 12.7104ZM4.33883 30.2805V14.4299H12.3423V16.2432H6.99623C6.39291 16.2432 5.90201 16.7341 5.90201 17.3374V25.4972C5.90201 25.7563 6.11197 25.9662 6.37096 25.9662C6.62995 25.9662 6.83991 25.7563 6.83991 25.4972V17.3374C6.83991 17.2512 6.91007 17.1811 6.99623 17.1811H12.3423V28.561H6.99623C6.91007 28.561 6.83991 28.4909 6.83991 28.4047V27.6857C6.83991 27.4266 6.62995 27.2167 6.37096 27.2167C6.11197 27.2167 5.90201 27.4266 5.90201 27.6857V28.4047C5.90201 29.008 6.39291 29.4989 6.99623 29.4989H12.3423V31.0621H5.12042C4.68942 31.0621 4.33883 30.7115 4.33883 30.2805ZM27.6614 30.2805C27.6614 30.7115 27.3108 31.0621 26.8798 31.0621H19.6579V29.4989H25.004C25.6073 29.4989 26.0982 29.008 26.0982 28.4047V20.1199C26.0982 19.8608 25.8883 19.6509 25.6293 19.6509C25.3703 19.6509 25.1603 19.8608 25.1603 20.1199V28.4047C25.1603 28.4909 25.0902 28.561 25.004 28.561H19.6579V17.1811H25.004C25.0902 17.1811 25.1603 17.2512 25.1603 17.3374V17.9314C25.1603 18.1905 25.3703 18.4004 25.6293 18.4004C25.8883 18.4004 26.0982 18.1905 26.0982 17.9314V17.3374C26.0982 16.7341 25.6073 16.2432 25.004 16.2432H19.6579V14.4299H27.6614V30.2805Z" fill="#C86B46"/>
</g>
<defs>
<clipPath id="clip0">
<rect width="32" height="32" fill="white"/>
</clipPath>
</defs>
</svg>
