<svg width="32" height="32" viewBox="0 0 32 32" fill="none" xmlns="http://www.w3.org/2000/svg">
<g clip-path="url(#clip0)">
<path d="M28.0669 24.25C28.3257 24.25 28.5356 24.0401 28.5356 23.7812V12.5312C28.5356 11.9717 28.3175 11.3994 27.9216 10.9197L24.4452 6.70762C24.2631 6.48694 24.0537 6.30094 23.8263 6.15281C23.8402 6.00956 23.8482 5.86487 23.8482 5.71881V0.468811C23.8482 0.209936 23.6383 6.10352e-05 23.3794 6.10352e-05C23.1206 6.10352e-05 22.9107 0.209936 22.9107 0.468811C22.9107 0.468811 22.9097 5.7635 22.9094 5.78587C22.776 5.76225 22.6406 5.75006 22.5044 5.75006H16.4419C16.0151 5.75006 15.5967 5.86981 15.2222 6.08987C15.206 6.09569 15.1899 6.10219 15.1742 6.10987L10.6047 8.33562C10.0985 8.58956 9.69368 9.0155 9.46474 9.53494C9.46224 9.54062 9.45986 9.54631 9.45761 9.55206L7.56836 14.3441C7.47342 14.5849 7.59167 14.8571 7.83255 14.9521C7.88899 14.9744 7.94711 14.9849 8.00436 14.9849C8.19124 14.9849 8.36786 14.8723 8.44055 14.6879L10.3261 9.90519C10.4679 9.58837 10.7159 9.32881 11.0202 9.17606L13.4344 8.00012L11.0247 10.9198C10.6639 11.3569 10.4732 11.9142 10.4732 12.5314V28.7189C10.4732 28.9074 10.4897 29.0919 10.5198 29.2718L5.68967 27.1316C4.59855 26.6481 4.10405 25.3639 4.58755 24.2689C4.58961 24.2642 4.59161 24.2594 4.59361 24.2546L7.6488 16.6619C7.74542 16.4217 7.62911 16.1487 7.38892 16.052C7.14861 15.9554 6.87574 16.0717 6.77905 16.3119L3.72655 23.8976C3.04017 25.4632 3.74917 27.2971 5.30986 27.9886L10.9739 30.4983C10.9808 30.5014 10.9879 30.5036 10.9949 30.5063C11.5697 31.4046 12.5636 32 13.6919 32H25.2544C27.0331 32 28.5357 30.4974 28.5357 28.7188V25.9688C28.5357 25.7099 28.3258 25.5 28.0669 25.5C27.8081 25.5 27.5982 25.7099 27.5982 25.9688V28.7188C27.5982 29.9892 26.5249 31.0625 25.2544 31.0625H13.6919C12.434 31.0625 11.4107 30.0111 11.4107 28.7188V12.5312C11.4107 12.1289 11.524 11.7874 11.7477 11.5165L15.2242 7.30437C15.5477 6.91237 15.9916 6.6875 16.4419 6.6875H22.5044C22.5927 6.6875 22.6807 6.69644 22.7677 6.71331C22.4742 7.714 21.7474 8.549 20.7658 8.96744C20.5091 8.53812 20.0399 8.25 19.5044 8.25C18.6945 8.25 18.0356 8.90887 18.0356 9.71875C18.0356 10.5286 18.6945 11.1875 19.5044 11.1875C20.2533 11.1875 20.8727 10.6239 20.9617 9.89856C22.2242 9.42106 23.1788 8.40931 23.6041 7.17437C23.6449 7.21544 23.6844 7.25862 23.7222 7.30437L27.1986 11.5166C27.4562 11.8287 27.5982 12.1891 27.5982 12.5313V23.7813C27.5981 24.0401 27.808 24.25 28.0669 24.25ZM19.5044 10.25C19.2114 10.25 18.9731 10.0117 18.9731 9.71875C18.9731 9.42581 19.2114 9.1875 19.5044 9.1875C19.7973 9.1875 20.0356 9.42581 20.0356 9.71875C20.0356 10.0117 19.7973 10.25 19.5044 10.25Z" fill="#C86B46"/>
<path d="M15.4419 24.9375C15.5619 24.9375 15.6819 24.8917 15.7734 24.8002L23.7734 16.8002C23.9564 16.6171 23.9564 16.3203 23.7734 16.1373C23.5903 15.9542 23.2935 15.9542 23.1105 16.1373L15.1105 24.1373C14.8116 24.4159 15.0409 24.9517 15.4419 24.9375Z" fill="#C86B46"/>
<path d="M16.4419 20C17.5619 20 18.4731 19.0887 18.4731 17.9687C18.4731 16.8487 17.5619 15.9375 16.4419 15.9375H16.3794C15.2594 15.9375 14.3481 16.8487 14.3481 17.9687C14.3481 19.0887 15.2594 20 16.3794 20H16.4419ZM15.2856 17.9687C15.2856 17.3657 15.7763 16.875 16.3794 16.875H16.4419C17.045 16.875 17.5356 17.3657 17.5356 17.9687C17.5356 18.5718 17.045 19.0625 16.4419 19.0625H16.3794C15.7763 19.0625 15.2856 18.5718 15.2856 17.9687Z" fill="#C86B46"/>
<path d="M22.5044 24.9375H22.5669C23.6869 24.9375 24.5981 24.0262 24.5981 22.9062C24.5981 21.7862 23.6869 20.875 22.5669 20.875H22.5044C21.3844 20.875 20.4731 21.7862 20.4731 22.9062C20.4731 24.0262 21.3844 24.9375 22.5044 24.9375ZM22.5044 21.8125H22.5669C23.17 21.8125 23.6606 22.3032 23.6606 22.9062C23.6606 23.5093 23.17 24 22.5669 24H22.5044C21.9013 24 21.4106 23.5093 21.4106 22.9062C21.4106 22.3032 21.9013 21.8125 22.5044 21.8125Z" fill="#C86B46"/>
</g>
<defs>
<clipPath id="clip0">
<rect width="32" height="32" fill="white"/>
</clipPath>
</defs>
</svg>
