<svg width="120" height="24" viewBox="0 0 120 24" fill="none" xmlns="http://www.w3.org/2000/svg">
<path fill-rule="evenodd" clip-rule="evenodd" d="M9.64975 9L11.5301 3.82913C11.6896 3.39029 12.3103 3.39029 12.4699 3.82913L14.3502 9H20C20.4888 9 20.6872 9.62928 20.2867 9.90962L15.5923 13.1957L17.4743 18.8419C17.6267 19.299 17.108 19.6859 16.7132 19.4096L12 16.1103L7.2867 19.4096C6.89198 19.6859 6.37326 19.299 6.52563 18.8419L8.40768 13.1957L3.71324 9.90962C3.31275 9.62928 3.51111 9 3.99997 9H9.64975Z" fill="#C86B46"/>
<path fill-rule="evenodd" clip-rule="evenodd" d="M33.6498 9L35.5301 3.82913C35.6896 3.39029 36.3103 3.39029 36.4699 3.82913L38.3502 9H44C44.4888 9 44.6872 9.62928 44.2867 9.90962L39.5923 13.1957L41.4743 18.8419C41.6267 19.299 41.108 19.6859 40.7132 19.4096L36 16.1103L31.2867 19.4096C30.892 19.6859 30.3733 19.299 30.5256 18.8419L32.4077 13.1957L27.7132 9.90962C27.3127 9.62928 27.5111 9 28 9H33.6498Z" fill="#C86B46"/>
<path fill-rule="evenodd" clip-rule="evenodd" d="M57.6498 9L59.5301 3.82913C59.6896 3.39029 60.3103 3.39029 60.4699 3.82913L62.3502 9H68C68.4888 9 68.6872 9.62928 68.2867 9.90962L63.5923 13.1957L65.4743 18.8419C65.6267 19.299 65.108 19.6859 64.7132 19.4096L60 16.1103L55.2867 19.4096C54.892 19.6859 54.3733 19.299 54.5256 18.8419L56.4077 13.1957L51.7132 9.90962C51.3127 9.62928 51.5111 9 52 9H57.6498Z" fill="#C86B46"/>
<path fill-rule="evenodd" clip-rule="evenodd" d="M81.6498 9L83.5301 3.82913C83.6896 3.39029 84.3103 3.39029 84.4699 3.82913L86.3502 9H92C92.4888 9 92.6872 9.62928 92.2867 9.90962L87.5923 13.1957L89.4743 18.8419C89.6267 19.299 89.108 19.6859 88.7132 19.4096L84 16.1103L79.2867 19.4096C78.892 19.6859 78.3733 19.299 78.5256 18.8419L80.4077 13.1957L75.7132 9.90962C75.3127 9.62928 75.5111 9 76 9H81.6498Z" fill="#C86B46"/>
<path fill-rule="evenodd" clip-rule="evenodd" d="M105.65 9L107.53 3.82913C107.69 3.39029 108.31 3.39029 108.47 3.82913L110.35 9H116C116.489 9 116.687 9.62928 116.287 9.90962L111.592 13.1957L113.474 18.8419C113.627 19.299 113.108 19.6859 112.713 19.4096L108 16.1103L103.287 19.4096C102.892 19.6859 102.373 19.299 102.526 18.8419L104.408 13.1957L99.7132 9.90962C99.3127 9.62928 99.5111 9 100 9H105.65Z" fill="#C86B46"/>
</svg>
