<svg width="24" height="24" viewBox="0 0 24 24" fill="none" xmlns="http://www.w3.org/2000/svg">
<path fill-rule="evenodd" clip-rule="evenodd" d="M14.1096 4C14.339 4 14.539 4.15615 14.5947 4.37873L15.25 7H19C19.2455 7 19.4496 7.17688 19.4919 7.41012L19.5 7.5C19.5 7.74546 19.3231 7.94961 19.0899 7.99194L19 8H18.3344C18.3344 8.05091 18.3305 8.10174 18.3228 8.15206L16.5652 19.576C16.5277 19.8199 16.3178 20 16.071 20H7.92896C7.68217 20 7.4723 19.8199 7.43477 19.576L5.67724 8.15206C5.6694 8.1011 5.66555 8.05044 5.66547 8.00042L5 8C4.72386 8 4.5 7.77614 4.5 7.5C4.5 7.25454 4.67688 7.05039 4.91012 7.00806L5 7H8.75L9.40532 4.37873C9.46096 4.15615 9.66095 4 9.89039 4H14.1096ZM17.3344 8H6.66561L8.35792 19H15.6421L17.3344 8ZM13.7192 5H10.2808L9.78078 7H14.2192L13.7192 5Z" fill="#BEC7D7"/>
</svg>
