<svg width="32" height="32" viewBox="0 0 32 32" fill="none" xmlns="http://www.w3.org/2000/svg">
<path fill-rule="evenodd" clip-rule="evenodd" d="M16 0C24.8366 0 32 7.16344 32 16C32 24.8366 24.8366 32 16 32C7.16344 32 0 24.8366 0 16C0 7.16344 7.16344 0 16 0ZM16 1C7.71573 1 1 7.71573 1 16C1 24.2843 7.71573 31 16 31C24.2843 31 31 24.2843 31 16C31 7.71573 24.2843 1 16 1ZM19.1464 12.1464C19.32 11.9729 19.5894 11.9536 19.7843 12.0886L19.8536 12.1464L23.8536 16.1464L23.9114 16.2157C24.0295 16.3862 24.0295 16.6138 23.9114 16.7843L23.8536 16.8536L19.8536 20.8536L19.7843 20.9114C19.6138 21.0295 19.3862 21.0295 19.2157 20.9114L19.1464 20.8536L19.0886 20.7843C18.9705 20.6138 18.9705 20.3862 19.0886 20.2157L19.1464 20.1464L22.292 17H8.5L8.41012 16.9919C8.20603 16.9549 8.0451 16.794 8.00806 16.5899L8 16.5L8.00806 16.4101C8.0451 16.206 8.20603 16.0451 8.41012 16.0081L8.5 16H22.292L19.1464 12.8536L19.0886 12.7843C18.9536 12.5894 18.9729 12.32 19.1464 12.1464Z" fill="#E7F1F3"/>
</svg>
