<svg width="16" height="16" viewBox="0 0 16 16" fill="none" xmlns="http://www.w3.org/2000/svg">
<path fill-rule="evenodd" clip-rule="evenodd" d="M8 16C12.4183 16 16 12.4183 16 8C16 3.58172 12.4183 0 8 0C3.58172 0 0 3.58172 0 8C0 12.4183 3.58172 16 8 16ZM12.7372 5.67573C13.1103 5.26861 13.0828 4.63604 12.6757 4.26285C12.2686 3.88966 11.636 3.91716 11.2628 4.32428L6.46859 9.55438L4.70711 7.7929C4.31658 7.40238 3.68342 7.40238 3.29289 7.7929C2.90237 8.18342 2.90237 8.81659 3.29289 9.20711L5.79289 11.7071C5.98576 11.9 6.24903 12.0057 6.52172 11.9998C6.79441 11.9938 7.05285 11.8768 7.23715 11.6757L12.7372 5.67573Z" fill="#52AE51"/>
</svg>
