<svg width="32" height="32" viewBox="0 0 32 32" fill="none" xmlns="http://www.w3.org/2000/svg">
<g clip-path="url(#clip0)">
<path d="M26.8438 23.3438C26.8438 23.6027 27.0536 23.8125 27.3125 23.8125C27.5714 23.8125 27.7812 23.6027 27.7812 23.3438C27.7812 22.3121 26.8792 21.4503 25.6875 21.2588V20.5312C25.6875 20.2723 25.4777 20.0625 25.2188 20.0625C24.9598 20.0625 24.75 20.2723 24.75 20.5312V21.2496C23.5275 21.4205 22.5938 22.2942 22.5938 23.3438C22.5938 24.3933 23.5275 25.267 24.75 25.4379V27.7995C24.0565 27.6579 23.5312 27.1918 23.5312 26.6562C23.5312 26.3973 23.3214 26.1875 23.0625 26.1875C22.8036 26.1875 22.5938 26.3973 22.5938 26.6562C22.5938 27.7058 23.5275 28.5795 24.75 28.7504V29.4688C24.75 29.7277 24.9598 29.9375 25.2188 29.9375C25.4777 29.9375 25.6875 29.7277 25.6875 29.4688V28.7412C26.8792 28.5497 27.7812 27.6879 27.7812 26.6562C27.7812 25.6246 26.8792 24.7628 25.6875 24.5713V22.2141C26.3498 22.3702 26.8438 22.8244 26.8438 23.3438ZM23.5312 23.3438C23.5312 22.8082 24.0565 22.3421 24.75 22.2005V24.487C24.0565 24.3454 23.5312 23.8793 23.5312 23.3438ZM26.8438 26.6562C26.8438 27.1756 26.3498 27.6298 25.6875 27.7859V25.5266C26.3498 25.6827 26.8438 26.1369 26.8438 26.6562Z" fill="#C86B46"/>
<path d="M30.2811 20.4814C30.7788 18.9427 31.0312 17.3367 31.0312 15.7031C31.0312 11.5587 29.4174 7.66244 26.4868 4.73194C23.5563 1.80137 19.6601 0.1875 15.5156 0.1875C11.3712 0.1875 7.47494 1.80137 4.54444 4.73194C1.61387 7.66244 0 11.5587 0 15.7031C0 18.4303 0.717625 21.1127 2.07538 23.4602C3.39244 25.7374 5.28088 27.6573 7.5365 29.0124C7.61206 29.0579 7.69525 29.0794 7.77744 29.0794C7.93656 29.0794 8.09175 28.9984 8.17969 28.852C8.31306 28.6301 8.24119 28.3421 8.01931 28.2088C3.58488 25.5448 0.9375 20.8698 0.9375 15.7031C0.9375 7.66475 7.47725 1.125 15.5156 1.125C23.554 1.125 30.0938 7.66475 30.0938 15.7031C30.0938 17.0823 29.9019 18.4402 29.5241 19.7499C29.1036 19.4019 28.6408 19.1034 28.1445 18.8634C28.4011 17.8344 28.5312 16.7734 28.5312 15.7031C28.5312 8.52631 22.6924 2.6875 15.5156 2.6875C13.4846 2.6875 11.5389 3.14244 9.73275 4.03969C9.50094 4.15488 9.40631 4.43619 9.5215 4.66806C9.63675 4.89994 9.918 4.99444 10.1499 4.87931C11.3706 4.27281 12.6606 3.88531 14 3.71906V5.84375C14 6.68813 14.6869 7.375 15.5312 7.375C16.3756 7.375 17.0625 6.68813 17.0625 5.84375V3.72375C22.4984 4.42175 26.8148 8.74738 27.4989 14.1875H25.3438C24.4994 14.1875 23.8125 14.8744 23.8125 15.7188C23.8125 16.5631 24.4994 17.25 25.3438 17.25H27.4951C27.4408 17.675 27.3641 18.0962 27.2651 18.5119C26.6098 18.3015 25.9118 18.1875 25.1875 18.1875C21.4311 18.1875 18.375 21.2436 18.375 25C18.375 25.8191 18.5204 26.6049 18.7866 27.333C18.2014 27.4972 17.6046 27.6166 17 27.6906V25.5312C17 24.6869 16.3131 24 15.4688 24C14.6244 24 13.9375 24.6869 13.9375 25.5312V27.6781C8.506 26.9662 4.199 22.6318 3.52875 17.1875H5.65625C6.50063 17.1875 7.1875 16.5006 7.1875 15.6562C7.1875 14.8119 6.50063 14.125 5.65625 14.125H3.54363C3.97338 10.8999 5.70256 7.93244 8.3525 5.97738C8.56087 5.82369 8.60513 5.53025 8.45144 5.32194C8.29775 5.11356 8.00444 5.06944 7.79594 5.223C6.1895 6.40819 4.85744 7.96994 3.94369 9.7395C2.99919 11.5686 2.5 13.6307 2.5 15.7031C2.5 22.8799 8.33881 28.7188 15.5156 28.7188C16.7614 28.7188 17.9898 28.5429 19.1733 28.1969C19.4327 28.6829 19.7492 29.1339 20.1139 29.5409C18.6361 30.0322 17.0928 30.2812 15.5156 30.2812C13.5841 30.2812 11.7081 29.9097 9.9395 29.1769C9.70031 29.0779 9.42612 29.1912 9.327 29.4305C9.22787 29.6698 9.34144 29.9439 9.58062 30.043C11.4636 30.8231 13.4603 31.2188 15.5156 31.2188C17.3593 31.2188 19.1601 30.8986 20.8729 30.2681C22.0486 31.2327 23.5516 31.8125 25.1875 31.8125C28.9439 31.8125 32 28.7564 32 25C32 23.2677 31.3498 21.6848 30.2811 20.4814ZM16.125 5.84375C16.125 6.17112 15.8586 6.4375 15.5312 6.4375C15.2039 6.4375 14.9375 6.17112 14.9375 5.84375V3.6395C15.3309 3.62031 15.732 3.62025 16.125 3.64031V5.84375ZM25.3438 16.3125C25.0164 16.3125 24.75 16.0461 24.75 15.7188C24.75 15.3914 25.0164 15.125 25.3438 15.125H27.5796C27.5987 15.5186 27.5984 15.9183 27.5784 16.3125H25.3438ZM5.65625 15.0625C5.98362 15.0625 6.25 15.3289 6.25 15.6562C6.25 15.9836 5.98362 16.25 5.65625 16.25H3.45044C3.43187 15.8562 3.43356 15.4563 3.45563 15.0625H5.65625ZM14.875 27.7642V25.5312C14.875 25.2039 15.1414 24.9375 15.4688 24.9375C15.7961 24.9375 16.0625 25.2039 16.0625 25.5312V27.7686C15.6684 27.7867 15.268 27.7852 14.875 27.7642ZM25.1875 30.875C21.948 30.875 19.3125 28.2395 19.3125 25C19.3125 21.7605 21.948 19.125 25.1875 19.125C28.427 19.125 31.0625 21.7605 31.0625 25C31.0625 28.2395 28.427 30.875 25.1875 30.875Z" fill="#C86B46"/>
<path d="M11.0292 19.2934C10.8012 19.1707 10.517 19.2558 10.3942 19.4837C10.0518 20.1192 10.2051 20.9177 10.7586 21.3822C11.045 21.6225 11.3942 21.7398 11.7417 21.7398C12.179 21.7398 12.6135 21.5539 12.9159 21.1935L15.5572 18.0458C16.8304 18.0235 17.8595 16.9816 17.8595 15.7031C17.8595 15.0032 17.5506 14.3744 17.0626 13.9446V10.7812C17.0626 9.93687 16.3757 9.25 15.5313 9.25C14.687 9.25 14 9.93687 14 10.7812V13.9174C13.3978 14.4156 13.0592 15.2739 13.2037 16.0861L11.8382 17.7134C11.6718 17.9118 11.6976 18.2074 11.8959 18.3738C12.0932 18.5396 12.3893 18.5151 12.5563 18.3161L13.6082 17.0625C13.8409 17.388 14.1543 17.6518 14.5194 17.824L12.1978 20.5908C11.9976 20.8396 11.6016 20.8742 11.3612 20.6641C11.1464 20.4839 11.0869 20.1746 11.2194 19.9284C11.3423 19.7006 11.2571 19.4163 11.0292 19.2934ZM14.9375 10.7812C14.9375 10.4539 15.2039 10.1875 15.5313 10.1875C15.8586 10.1875 16.125 10.4539 16.125 10.7812V13.4402C15.7496 13.3361 15.3151 13.3329 14.9375 13.4317V10.7812ZM14.6741 14.5771C14.9186 14.4032 15.197 14.2945 15.5156 14.2969C16.291 14.2969 16.9219 14.9278 16.9219 15.7031C16.9219 16.4785 16.291 17.1094 15.5156 17.1094C14.7403 17.1094 14.1094 16.4785 14.1094 15.7031C14.1094 15.2431 14.3315 14.8339 14.6741 14.5771Z" fill="#C86B46"/>
</g>
<defs>
<clipPath id="clip0">
<rect width="32" height="32" fill="white"/>
</clipPath>
</defs>
</svg>
