<svg width="32" height="32" viewBox="0 0 32 32" fill="none" xmlns="http://www.w3.org/2000/svg">
<path d="M32 0H0V32H32V0Z" fill="#DC472E"/>
<path d="M18.4853 20.4847C18.4846 20.3654 18.4495 20.2411 18.4052 20.1294C18.3463 19.9827 18.2199 19.9097 18.0612 19.8942C17.8751 19.8759 17.7263 19.9511 17.5914 20.0705C17.5374 20.1175 17.5128 20.1877 17.5128 20.1877L17.5156 23.9773V24.0707C17.5156 24.0707 17.5479 24.1142 17.5528 24.1199C17.6624 24.2385 17.7901 24.3326 17.9538 24.3663C18.2234 24.4218 18.4137 24.3094 18.4663 24.0595C18.4797 23.997 18.4874 23.9324 18.4874 23.8685C18.4888 22.7401 18.4909 21.6124 18.4853 20.4847ZM18.4853 20.4847C18.4846 20.3654 18.4495 20.2411 18.4052 20.1294C18.3463 19.9827 18.2199 19.9097 18.0612 19.8942C17.8751 19.8759 17.7263 19.9511 17.5914 20.0705C17.5374 20.1175 17.5128 20.1877 17.5128 20.1877L17.5156 23.9773V24.0707C17.5156 24.0707 17.5479 24.1142 17.5528 24.1199C17.6624 24.2385 17.7901 24.3326 17.9538 24.3663C18.2234 24.4218 18.4137 24.3094 18.4663 24.0595C18.4797 23.997 18.4874 23.9324 18.4874 23.8685C18.4888 22.7401 18.4909 21.6124 18.4853 20.4847ZM22.7285 14.7698C18.2438 14.6736 13.7569 14.6736 9.27144 14.7698C7.71543 14.8028 6.47119 16.0751 6.47119 17.6318V24.6367C6.47119 26.1941 7.71543 27.4664 9.27144 27.4994C13.7569 27.5956 18.2438 27.5956 22.7285 27.4994C24.2852 27.4664 25.5295 26.1941 25.5295 24.6367V17.6318C25.5295 16.0752 24.2852 14.8028 22.7285 14.7698ZM10.5887 25.275H9.29531V17.9633H7.95628V16.7401H11.9306V17.9605H10.5887V25.275ZM15.2174 22.2402V25.2756H14.0722V24.5819C14.0307 24.6261 14.0076 24.65 13.9858 24.6746C13.7393 24.9526 13.4599 25.1843 13.1032 25.3072C12.929 25.3669 12.75 25.3873 12.5667 25.3557C12.3167 25.3142 12.1489 25.1703 12.0478 24.9428C11.9537 24.7328 11.9299 24.5082 11.9291 24.2821C11.9263 23.4465 11.9277 19.0242 11.9277 18.9814H13.0702C13.0723 19.02 13.0765 22.1945 13.0772 23.7428C13.0772 23.8271 13.0779 23.9134 13.0947 23.9956C13.1369 24.2034 13.2963 24.2926 13.4964 24.2196C13.7267 24.1353 13.9022 23.9766 14.0497 23.7863C14.0715 23.7589 14.0715 23.7098 14.0715 23.6705V18.9744L15.2174 18.9716C15.2174 18.9716 15.2174 21.1883 15.2174 22.2402ZM19.5744 24.669C19.4213 25.1296 19.0842 25.3641 18.5998 25.3592C18.2058 25.3557 17.8863 25.1991 17.623 24.9133C17.5935 24.8817 17.5121 24.7953 17.5121 24.7953V25.2742H16.3647V16.7394H17.5121C17.5121 17.648 17.5121 19.5487 17.5121 19.5487C17.5121 19.5487 17.5767 19.4195 17.6357 19.3528C17.8133 19.1541 18.0296 19.0003 18.2964 18.9329C18.7367 18.8227 19.2443 18.9589 19.4859 19.4736C19.6284 19.7776 19.6685 20.102 19.6685 20.4321C19.6706 21.6251 19.6706 22.818 19.6692 24.011C19.6685 24.2343 19.6453 24.4549 19.5744 24.669ZM23.8119 24.4289C23.6132 25.011 23.2025 25.334 22.6 25.4224C22.2265 25.4772 21.8564 25.4695 21.506 25.3108C21.0264 25.0945 20.7547 24.7034 20.6381 24.2056C20.5841 23.9739 20.5574 23.7309 20.5546 23.4929C20.5455 22.5583 20.5497 21.623 20.5518 20.6884C20.5525 20.1997 20.669 19.7489 21.004 19.3747C21.386 18.9471 21.8747 18.7877 22.4329 18.8235C22.6007 18.834 22.772 18.8614 22.9314 18.914C23.4742 19.0924 23.7642 19.499 23.878 20.0382C23.9215 20.2461 23.9376 20.4616 23.9411 20.6744C23.9503 21.1729 23.9376 22.2718 23.9376 22.2718H21.7406V23.8468C21.7406 24.1298 21.9695 24.3587 22.2524 24.3587C22.5347 24.3587 22.7636 24.1298 22.7636 23.8468V23.0372H23.944C23.944 23.0371 23.9615 23.9928 23.8119 24.4289ZM22.7636 20.4111C22.7636 20.1288 22.5347 19.8992 22.2524 19.8992C21.9695 19.8992 21.7406 20.1288 21.7406 20.4111V21.2951H22.7636V20.4111ZM18.4052 20.1295C18.3463 19.9827 18.2199 19.9097 18.0612 19.8943C17.8751 19.876 17.7263 19.9512 17.5914 20.0705C17.5374 20.1176 17.5128 20.1878 17.5128 20.1878L17.5156 23.9774V24.0708C17.5156 24.0708 17.5479 24.1143 17.5528 24.1199C17.6624 24.2386 17.7901 24.3327 17.9538 24.3664C18.2234 24.4219 18.4137 24.3095 18.4663 24.0595C18.4797 23.997 18.4874 23.9324 18.4874 23.8685C18.4888 22.7402 18.4909 21.6125 18.4853 20.4848C18.4846 20.3654 18.4495 20.2411 18.4052 20.1295Z" fill="white"/>
<path d="M21.338 6.67017L21.3376 13.0068H20.1634L20.1649 12.3261C20.035 12.4539 19.9242 12.5734 19.8025 12.6807C19.5866 12.8708 19.3421 13.0126 19.0561 13.0685C18.6171 13.1544 18.2431 13.0156 18.1031 12.5609C18.0565 12.4094 18.0283 12.2462 18.0271 12.088V6.67017H19.1924V11.5026C19.1924 11.5666 19.1975 11.6313 19.2088 11.6941C19.2442 11.8932 19.3913 11.987 19.5831 11.9205C19.8169 11.8396 19.9952 11.6778 20.1465 11.487C20.168 11.4598 20.1642 11.409 20.1642 11.369V6.67017H21.338Z" fill="white"/>
<path d="M11.6265 7.77124C11.3716 6.69685 10.8376 4.42877 10.8376 4.42877H9.50146C9.50146 4.42877 10.528 7.83338 10.9871 9.35175C11.0036 9.40666 11.0112 9.46627 11.0112 9.52378L11.0107 13.0054H12.2428L12.2423 9.52378C12.2423 9.46627 12.2499 9.40666 12.2664 9.35175C12.7255 7.83338 13.752 4.42877 13.752 4.42877H12.4159C12.4159 4.42877 11.8818 6.69685 11.627 7.77124H11.6265Z" fill="white"/>
<path d="M15.3602 6.51135C14.4317 6.51135 13.679 7.26408 13.679 8.19262V11.4829C13.679 12.4115 14.4317 13.1642 15.3602 13.1642C16.2888 13.1642 17.0415 12.4115 17.0415 11.4829V8.19262C17.0416 7.26408 16.2888 6.51135 15.3602 6.51135ZM15.8454 11.5493C15.8454 11.8169 15.6278 12.0345 15.3603 12.0345C15.0928 12.0345 14.8752 11.8169 14.8752 11.5493V8.12613C14.8752 7.8586 15.0928 7.641 15.3603 7.641C15.6278 7.641 15.8454 7.85867 15.8454 8.12613V11.5493Z" fill="white"/>
</svg>
